<svg width="16" height="16" viewBox="0 0 16 16" fill="none" xmlns="http://www.w3.org/2000/svg">
<path fill-rule="evenodd" clip-rule="evenodd" d="M11.5995 13.9152C10.4497 14.8476 8.99354 15.3849 7.36265 15.3849C3.06909 15.3849 0 12.2493 0 7.88093C0 3.52767 3.06909 0.429321 7.36265 0.429321C9.01642 0.429321 10.4936 0.982199 11.6531 1.93984L12.1479 0.85283L15.7527 0.85309V14.9093H12.0137L11.5995 13.9152ZM4.86615 7.89217C4.86615 9.72781 6.19775 11.098 8.00935 11.098C9.82095 11.098 11.1525 9.72781 11.1525 7.89217C11.1525 6.06773 9.82095 4.69751 8.00935 4.69751C6.18682 4.69751 4.86615 6.06773 4.86615 7.89217Z" fill="#D87D4A"/>
</svg>
